<svg width="28" height="28" viewBox="0 0 28 28" fill="none" xmlns="http://www.w3.org/2000/svg">
<path d="M11 15.4999L13.8408 12.6591C13.9287 12.5712 14.0711 12.5712 14.159 12.6591L16.9998 15.4999" stroke="#DFCB93" stroke-width="1.16375"/>
<path d="M13.9999 19.2498V12.5" stroke="#DFCB93" stroke-width="1.16375"/>
<path d="M2.75037 7.0999C2.75037 5.83981 2.75037 5.20977 2.99559 4.72849C3.2113 4.30513 3.5555 3.96094 3.97885 3.74523C4.46014 3.5 5.09018 3.5 6.35026 3.5H10.2087C10.7723 3.5 11.054 3.5 11.3098 3.57768C11.5362 3.64645 11.7469 3.75919 11.9297 3.90946C12.1362 4.07919 12.2925 4.31365 12.605 4.78257L13.8951 6.7179C14.2077 7.18682 14.3639 7.42128 14.5704 7.59102C14.7533 7.74128 14.9639 7.85403 15.1903 7.92279C15.4461 8.00047 15.7279 8.00047 16.2914 8.00047H21.6498C22.9099 8.00047 23.54 8.00047 24.0212 8.2457C24.4446 8.46141 24.7888 8.80561 25.0045 9.22896C25.2497 9.71025 25.2497 10.3403 25.2497 11.6004V20.9001C25.2497 22.1602 25.2497 22.7902 25.0045 23.2715C24.7888 23.6949 24.4446 24.0391 24.0212 24.2548C23.54 24.5 22.9099 24.5 21.6498 24.5H6.35027C5.09018 24.5 4.46014 24.5 3.97885 24.2548C3.5555 24.0391 3.2113 23.6949 2.99559 23.2715C2.75037 22.7902 2.75037 22.1602 2.75037 20.9001V7.0999Z" stroke="#DFCB93" stroke-width="1.16375"/>
</svg>
