<svg width="36" height="36" viewBox="0 0 36 36" fill="none" xmlns="http://www.w3.org/2000/svg">
<g clip-path="url(#clip0_35_271)">
<path d="M21.0006 26.9972L20.9983 26.4678C20.7068 26.4691 20.4712 26.7057 20.4712 26.9972H21.0006ZM21.0006 27.0001L21.474 27.237C21.5108 27.1635 21.53 27.0824 21.53 27.0001H21.0006ZM15.0006 27.0001H14.4712C14.4712 27.0823 14.4903 27.1634 14.527 27.2369L15.0006 27.0001ZM15.0006 26.9972H15.53C15.53 26.7057 15.2944 26.4691 15.0029 26.4678L15.0006 26.9972ZM19.5006 6.00012V6.52953C21.6181 6.52953 23.1665 6.53008 24.3759 6.65302C25.5766 6.77507 26.3843 7.01333 27.0395 7.45106L27.3336 7.01086L27.6277 6.57067C26.7695 5.9973 25.7673 5.73018 24.483 5.59963C23.2076 5.46998 21.5961 5.4707 19.5006 5.4707V6.00012ZM27.3336 7.01086L27.0395 7.45106C27.6368 7.85012 28.1496 8.36302 28.5487 8.96028L28.9888 8.66613L29.429 8.37201C28.9527 7.6592 28.3406 7.047 27.6277 6.57067L27.3336 7.01086ZM28.9888 8.66613L28.5487 8.96028C28.9865 9.61548 29.2249 10.4235 29.3472 11.6243C29.4704 12.8339 29.4712 14.3825 29.4712 16.5001H30.0006H30.53C30.53 14.4044 30.5305 12.7927 30.4006 11.517C30.2698 10.2325 30.0024 9.23014 29.429 8.37201L28.9888 8.66613ZM30.0006 16.5001H29.4712C29.4712 18.6177 29.4704 20.166 29.3472 21.3754C29.2249 22.576 28.9865 23.3838 28.5487 24.039L28.9888 24.3331L29.429 24.6273C30.0024 23.7692 30.2698 22.7671 30.4006 21.4827C30.5305 20.2072 30.53 18.5957 30.53 16.5001H30.0006ZM28.9888 24.3331L28.5487 24.039C28.1495 24.6363 27.6368 25.1491 27.0394 25.5482L27.3336 25.9884L27.6277 26.4286C28.3406 25.9522 28.9527 25.3402 29.429 24.6273L28.9888 24.3331ZM27.3336 25.9884L27.0394 25.5482C26.4671 25.9307 25.7779 26.1609 24.8125 26.2943C23.8386 26.4289 22.619 26.4607 20.9983 26.4678L21.0006 26.9972L21.0029 27.5266C22.6185 27.5196 23.9044 27.4887 24.9574 27.3432C26.0189 27.1965 26.8781 26.9295 27.6277 26.4286L27.3336 25.9884ZM21.0006 26.9972H20.4712V27.0001H21.0006H21.53V26.9972H21.0006ZM21.0006 27.0001L20.5271 26.7633L18.4734 30.8688L18.9469 31.1056L19.4203 31.3425L21.474 27.237L21.0006 27.0001ZM18.9469 31.1056L18.4734 30.8688C18.2782 31.259 17.7219 31.259 17.5268 30.8688L17.0533 31.1056L16.5798 31.3424C17.1651 32.513 18.8349 32.5129 19.4203 31.3425L18.9469 31.1056ZM17.0533 31.1056L17.5268 30.8688L15.4741 26.7634L15.0006 27.0001L14.527 27.2369L16.5798 31.3424L17.0533 31.1056ZM15.0006 27.0001H15.53V26.9972H15.0006H14.4712V27.0001H15.0006ZM15.0006 26.9972L15.0029 26.4678C13.3819 26.4607 12.1621 26.4289 11.188 26.2944C10.2224 26.161 9.53317 25.9307 8.96075 25.5482L8.66662 25.9884L8.37248 26.4286C9.12213 26.9295 9.98149 27.1966 11.0431 27.3432C12.0963 27.4887 13.3824 27.5196 14.9983 27.5266L15.0006 26.9972ZM8.66662 25.9884L8.96075 25.5482C8.36349 25.1491 7.8506 24.6363 7.45154 24.039L7.01135 24.3331L6.57115 24.6273C7.04748 25.3402 7.65966 25.9523 8.37248 26.4286L8.66662 25.9884ZM7.01135 24.3331L7.45154 24.039C7.01381 23.3839 6.77556 22.5761 6.65351 21.3755C6.53057 20.1661 6.53002 18.6177 6.53002 16.5001H6.00061H5.47119C5.47119 18.5956 5.47047 20.2071 5.60012 21.4826C5.73067 22.7669 5.99778 23.7691 6.57115 24.6273L7.01135 24.3331ZM6.00061 16.5001H6.53002C6.53002 14.3824 6.53055 12.8338 6.65348 11.6242C6.77552 10.4233 7.01379 9.6154 7.45154 8.96026L7.01135 8.66613L6.57116 8.372C5.99773 9.2302 5.73062 10.2326 5.60009 11.5171C5.47044 12.7927 5.47119 14.4045 5.47119 16.5001H6.00061ZM7.01135 8.66613L7.45154 8.96026C7.85064 8.363 8.3635 7.85014 8.96076 7.45104L8.66662 7.01086L8.3725 6.57067C7.65964 7.04701 7.0475 7.65914 6.57116 8.372L7.01135 8.66613ZM8.66662 7.01086L8.96076 7.45104C9.6159 7.01329 10.4238 6.77503 11.6246 6.65299C12.8343 6.53006 14.3828 6.52953 16.5006 6.52953V6.00012V5.4707C14.4049 5.4707 12.7932 5.46995 11.5175 5.59959C10.233 5.73013 9.2307 5.99724 8.3725 6.57067L8.66662 7.01086ZM16.5006 6.00012V6.52953H19.5006V6.00012V5.4707H16.5006V6.00012Z" fill="#DFCB93"/>
<path d="M24 18C24.8284 18 25.5 17.3284 25.5 16.5C25.5 15.6716 24.8284 15 24 15C23.1716 15 22.5 15.6716 22.5 16.5C22.5 17.3284 23.1716 18 24 18Z" fill="#DFCB93"/>
<path d="M18 18C18.8284 18 19.5 17.3284 19.5 16.5C19.5 15.6716 18.8284 15 18 15C17.1716 15 16.5 15.6716 16.5 16.5C16.5 17.3284 17.1716 18 18 18Z" fill="#DFCB93"/>
<path d="M12 18C12.8284 18 13.5 17.3284 13.5 16.5C13.5 15.6716 12.8284 15 12 15C11.1716 15 10.5 15.6716 10.5 16.5C10.5 17.3284 11.1716 18 12 18Z" fill="#DFCB93"/>
</g>
<defs>
<clipPath id="clip0_35_271">
<rect width="36" height="36" fill="white"/>
</clipPath>
</defs>
</svg>
