<svg width="28" height="28" viewBox="0 0 28 28" fill="none" xmlns="http://www.w3.org/2000/svg">
<path d="M11.0833 18.5L11.0833 15" stroke="#DFCB93" stroke-width="1.16667" stroke-linecap="round"/>
<path d="M16.9167 18.5L16.9167 15" stroke="#DFCB93" stroke-width="1.16667" stroke-linecap="round"/>
<path d="M3.5 9.16699H24.5C22.8615 9.16699 22.0422 9.16699 21.4537 9.56023C21.1989 9.73047 20.9801 9.94922 20.8099 10.204C20.4167 10.7925 20.4167 11.6118 20.4167 13.2503V19.667C20.4167 21.8669 20.4167 22.9668 19.7332 23.6502C19.0498 24.3337 17.9499 24.3337 15.75 24.3337H12.25C10.0501 24.3337 8.95017 24.3337 8.26675 23.6502C7.58333 22.9668 7.58333 21.8669 7.58333 19.667V13.2503C7.58333 11.6118 7.58333 10.7925 7.1901 10.204C7.01986 9.94922 6.80111 9.73047 6.54633 9.56023C5.95781 9.16699 5.13854 9.16699 3.5 9.16699Z" stroke="#DFCB93" stroke-width="1.16667" stroke-linecap="round"/>
<path d="M11.0834 5.66695C11.0834 5.66695 11.6667 4.5 14.0001 4.5C16.3334 4.5 16.9167 5.66667 16.9167 5.66667" stroke="#DFCB93" stroke-width="1.16667" stroke-linecap="round"/>
</svg>
