<svg width="24" height="24" viewBox="0 0 24 24" fill="none" xmlns="http://www.w3.org/2000/svg">
<path d="M1.57379 14.5492C0.632304 12.9801 0.632304 11.0198 1.57379 9.45073C1.86109 8.97185 2.33705 8.63644 2.88462 8.52692L5.12016 8.0798C5.25334 8.05317 5.3734 7.98175 5.46035 7.87739L8.19246 4.59887C9.75395 2.72509 10.5347 1.78818 11.2314 2.04044C11.9282 2.2927 11.9282 3.51227 11.9282 5.9514V18.0485C11.9282 20.4876 11.9282 21.7072 11.2314 21.9595C10.5347 22.2117 9.75395 21.2749 8.19246 19.401L5.46035 16.1225C5.3734 16.0182 5.25334 15.9468 5.12016 15.9201L2.88462 15.473C2.33705 15.3635 1.86109 15.0281 1.57379 14.5492Z" stroke="#DFCB93" stroke-width="0.955556"/>
<path d="M15.2098 15.9613L23.1325 8.0387" stroke="#DFCB93" stroke-width="0.955556" stroke-linecap="round"/>
<path d="M23.1325 15.9613L15.2098 8.0387" stroke="#DFCB93" stroke-width="0.955556" stroke-linecap="round"/>
</svg>
