<svg width="36" height="36" viewBox="0 0 36 36" fill="none" xmlns="http://www.w3.org/2000/svg">
<path d="M29.25 18C29.25 25.527 21.0175 30.604 18.6373 31.9146C18.2353 32.136 17.7647 32.136 17.3627 31.9146C14.9825 30.604 6.75 25.527 6.75 18C6.75 11.25 12.201 6.75 18 6.75C24 6.75 29.25 11.25 29.25 18Z" stroke="#DFCB93" stroke-width="1.5"/>
<path d="M18 23.25C20.8995 23.25 23.25 20.8995 23.25 18C23.25 15.1005 20.8995 12.75 18 12.75C15.1005 12.75 12.75 15.1005 12.75 18C12.75 20.8995 15.1005 23.25 18 23.25Z" stroke="#DFCB93" stroke-width="1.5"/>
</svg>
