<svg width="28" height="28" viewBox="0 0 28 28" fill="none" xmlns="http://www.w3.org/2000/svg">
<path d="M18.6667 24.5V22.1667C18.6667 19.9668 18.6667 18.8668 17.9833 18.1834C17.2999 17.5 16.2 17.5 14.0001 17.5H12.8334C10.6335 17.5 9.53358 17.5 8.85017 18.1834C8.16675 18.8668 8.16675 19.9668 8.16675 22.1667V24.5" stroke="#DFCB93" stroke-width="1.16667"/>
<path d="M8.16675 9.3335H14.0001" stroke="#DFCB93" stroke-width="1.16667" stroke-linecap="round"/>
<path d="M3.5 10.5C3.5 7.20017 3.5 5.55025 4.52513 4.52513C5.55025 3.5 7.20017 3.5 10.5 3.5H18.8668C19.3437 3.5 19.5821 3.5 19.7965 3.58881C20.0109 3.67761 20.1795 3.84622 20.5168 4.18342L23.8166 7.48325C24.1538 7.82045 24.3224 7.98905 24.4112 8.20345C24.5 8.41785 24.5 8.65629 24.5 9.13316V17.5C24.5 20.7998 24.5 22.4497 23.4749 23.4749C22.4497 24.5 20.7998 24.5 17.5 24.5H10.5C7.20017 24.5 5.55025 24.5 4.52513 23.4749C3.5 22.4497 3.5 20.7998 3.5 17.5V10.5Z" stroke="#DFCB93" stroke-width="1.16667"/>
</svg>
