<svg width="28" height="28" viewBox="0 0 28 28" fill="none" xmlns="http://www.w3.org/2000/svg">
<path d="M2.33325 13.9998L1.87775 13.6354L1.58622 13.9998L1.87775 14.3642L2.33325 13.9998ZM12.8333 14.5832C13.1554 14.5832 13.4166 14.322 13.4166 13.9998C13.4166 13.6777 13.1554 13.4165 12.8333 13.4165V13.9998V14.5832ZM6.99992 8.1665L6.54441 7.8021L1.87775 13.6354L2.33325 13.9998L2.78876 14.3642L7.45543 8.53091L6.99992 8.1665ZM2.33325 13.9998L1.87775 14.3642L6.54441 20.1976L6.99992 19.8332L7.45543 19.4688L2.78876 13.6354L2.33325 13.9998ZM2.33325 13.9998V14.5832H12.8333V13.9998V13.4165H2.33325V13.9998Z" fill="#DFCB93"/>
<path d="M11.6667 9.48742V8.62009C11.6667 6.73202 11.6667 5.78799 12.2197 5.13525C12.7727 4.48251 13.7038 4.32731 15.5662 4.01692L17.516 3.69196C21.2996 3.06136 23.1914 2.74606 24.4291 3.79454C25.6667 4.84302 25.6667 6.76092 25.6667 10.5967V17.4036C25.6667 21.2394 25.6667 23.1573 24.4291 24.2058C23.1914 25.2543 21.2996 24.939 17.516 24.3084L15.5662 23.9834C13.7038 23.673 12.7727 23.5178 12.2197 22.8651C11.6667 22.2123 11.6667 21.2683 11.6667 19.3802V18.7438" stroke="#DFCB93" stroke-width="1.16667"/>
</svg>
