<svg width="24" height="24" viewBox="0 0 24 24" fill="none" xmlns="http://www.w3.org/2000/svg">
<path d="M1.70611 14.5491C0.76463 12.9801 0.76463 11.0197 1.70611 9.45068C1.99341 8.97181 2.46936 8.63639 3.01693 8.52688L5.25246 8.07977C5.38564 8.05313 5.50569 7.98171 5.59264 7.87736L8.32474 4.59886C9.88621 2.72508 10.667 1.78818 11.3636 2.04044C12.0604 2.29269 12.0604 3.51226 12.0604 5.95137V18.0484C12.0604 20.4875 12.0604 21.7071 11.3636 21.9594C10.667 22.2116 9.88621 21.2748 8.32474 19.4009L5.59264 16.1224C5.50569 16.0181 5.38564 15.9467 5.25246 15.92L3.01693 15.4729C2.46936 15.3634 1.99341 15.0281 1.70611 14.5491Z" stroke="#DFCB93"/>
<path d="M15.0491 7.33154C16.2809 8.56331 16.976 10.232 16.9828 11.974C16.9897 13.716 16.3078 15.39 15.0858 16.6315" stroke="#DFCB93" stroke-linecap="round"/>
<path d="M19.491 4.53052C21.4617 6.50137 22.5738 9.17124 22.5847 11.9584C22.5958 14.7456 21.5048 17.4241 19.5495 19.4104" stroke="#DFCB93" stroke-linecap="round"/>
</svg>
