<svg width="36" height="36" viewBox="0 0 36 36" fill="none" xmlns="http://www.w3.org/2000/svg">
<path d="M18 9.75V27.75" stroke="#DFCB93" stroke-width="1.5" stroke-linecap="round"/>
<path d="M30.75 9.75V27.75" stroke="#DFCB93" stroke-width="1.5" stroke-linecap="round"/>
<path d="M5.25 9.75V27.75" stroke="#DFCB93" stroke-width="1.5" stroke-linecap="round"/>
<path d="M30.75 27.75C30.75 27.75 29.25 24.75 24 24.75C18.75 24.75 18 27.75 18 27.75" stroke="#DFCB93" stroke-width="1.5" stroke-linecap="round"/>
<path d="M5.25 27.75C5.25 27.75 6.75 24.75 12 24.75C17.25 24.75 18 27.75 18 27.75" stroke="#DFCB93" stroke-width="1.5" stroke-linecap="round"/>
<path d="M30.75 9.75C30.75 9.75 29.25 6.75 24 6.75C18.75 6.75 18 9.75 18 9.75" stroke="#DFCB93" stroke-width="1.5" stroke-linecap="round"/>
<path d="M5.25 9.75C5.25 9.75 6.75 6.75 12 6.75C17.25 6.75 18 9.75 18 9.75" stroke="#DFCB93" stroke-width="1.5" stroke-linecap="round"/>
</svg>
